<svg xmlns="http://www.w3.org/2000/svg" viewBox="0 0 540 380" width="540" height="380" font-family="Inter, system-ui, sans-serif">
  <defs><filter id="s" x="-20%" y="-20%" width="140%" height="140%"><feDropShadow dx="0" dy="8" stdDeviation="16" flood-color="#141e3c" flood-opacity="0.10"></feDropShadow></filter></defs>
  <rect x="12" y="12" width="516" height="356" rx="20" fill="#fff" stroke="#e9ebef" filter="url(#s)"></rect>
  <text x="32" y="44" font-size="11" font-weight="800" letter-spacing="0.12em" fill="#1d8a57">RAISABLE</text>
  <text x="32" y="72" font-size="22" font-weight="700" fill="#16224d">KYC &amp; accreditation</text>
  <line x1="32" y1="92" x2="508" y2="92" stroke="#eef0f3"></line>

  
  <rect x="32" y="104" width="150" height="74" rx="12" fill="#e6f6ee"></rect><text x="48" y="132" font-size="11" fill="#0f5235">Verified</text><text x="48" y="162" font-size="24" font-weight="700" font-family="&#39;JetBrains Mono&#39;,monospace" fill="#1d8a57">36</text>
  <rect x="194" y="104" width="150" height="74" rx="12" fill="#fdf3e0"></rect><text x="210" y="132" font-size="11" fill="#8a6a17">Pending</text><text x="210" y="162" font-size="24" font-weight="700" font-family="&#39;JetBrains Mono&#39;,monospace" fill="#b07d12">4</text>
  <rect x="356" y="104" width="152" height="74" rx="12" fill="#eef0f3"></rect><text x="372" y="132" font-size="11" fill="#5b6472">Total accredited</text><text x="372" y="162" font-size="24" font-weight="700" font-family="&#39;JetBrains Mono&#39;,monospace" fill="#16224d">40</text>

  <g font-size="14.5">
    <text x="32" y="210" font-weight="600" fill="#16224d">Aoife Capital LP</text><text x="300" y="210" font-size="12.5" fill="#97a0ae">accredited · entity</text>
    <rect x="430" y="196" width="82" height="22" rx="11" fill="#e6f6ee"></rect><text x="471" y="211" text-anchor="middle" font-size="11.5" font-weight="600" fill="#1d8a57">Verified</text>
    <line x1="32" y1="226" x2="508" y2="226" stroke="#eef0f3"></line>
    <text x="32" y="254" font-weight="600" fill="#16224d">Maeve Ventures</text><text x="300" y="254" font-size="12.5" fill="#97a0ae">accredited · VC</text>
    <rect x="430" y="240" width="82" height="22" rx="11" fill="#e6f6ee"></rect><text x="471" y="255" text-anchor="middle" font-size="11.5" font-weight="600" fill="#1d8a57">Verified</text>
    <line x1="32" y1="270" x2="508" y2="270" stroke="#eef0f3"></line>
    <text x="32" y="298" font-weight="600" fill="#16224d">R. Doyle</text><text x="300" y="298" font-size="12.5" fill="#97a0ae">individual · ID check</text>
    <rect x="424" y="284" width="88" height="22" rx="11" fill="#fdf3e0"></rect><text x="468" y="299" text-anchor="middle" font-size="11.5" font-weight="600" fill="#b07d12">Pending</text>
    <line x1="32" y1="314" x2="508" y2="314" stroke="#eef0f3"></line>
    <text x="32" y="342" font-weight="600" fill="#16224d">Bridgepoint Angels</text><text x="300" y="342" font-size="12.5" fill="#97a0ae">syndicate · look-through</text>
    <rect x="430" y="328" width="82" height="22" rx="11" fill="#e6f6ee"></rect><text x="471" y="343" text-anchor="middle" font-size="11.5" font-weight="600" fill="#1d8a57">Verified</text>
  </g>
</svg>